<svg width="206" height="231" viewBox="0 0 206 231" fill="none" xmlns="http://www.w3.org/2000/svg">
<path d="M143.143 84C143.143 96.1503 133.293 106 121.143 106C109.992 106 101.143 96.1503 101.143 84C101.143 71.8497 109.992 62 121.143 62C133.293 62 143.143 71.8497 143.143 84Z" fill="#24C8DB"/>
<path fill-rule="evenodd" clip-rule="evenodd" d="M121.143 220C121.143 220 84.0002 171.822 84.0002 130C84.0002 88.1777 121.143 40 121.143 40C121.143 40 158.286 88.1777 158.286 130C158.286 171.822 121.143 220 121.143 220Z" fill="#FFC131"/>
<ellipse cx="84" cy="147" rx="40" ry="84" fill="#24C8DB"/>
<ellipse cx="158" cy="147" rx="40" ry="84" fill="#24C8DB"/>
<ellipse cx="121" cy="63" rx="40" ry="44" fill="#FFC131"/>
</svg>